<svg class="b_pri_nav_svg" width="16" height="16" viewBox="0 0 16 16" fill="none" xmlns="http://www.w3.org/2000/svg"><path d="M11 8C11 8.55228 11.4477 8.99999 12 8.99999C12.5523 8.99999 13 8.55228 13 8C13 7.44771 12.5523 7 12 7C11.4477 7 11 7.44771 11 8ZM7.00002 8C7.00002 8.55228 7.44774 8.99999 8.00002 8.99999C8.5523 8.99999 9.00002 8.55228 9.00002 8C9.00002 7.44771 8.5523 7 8.00002 7C7.44774 7 7.00002 7.44771 7.00002 8ZM4.00003 8.99999C3.44775 8.99999 3.00004 8.55228 3.00004 8C3.00004 7.44771 3.44775 7 4.00003 7C4.55232 7 5.00003 7.44771 5.00003 8C5.00003 8.55228 4.55232 8.99999 4.00003 8.99999Z" fill="#456EE9"></path></svg>