<svg xmlns="http://www.w3.org/2000/svg" width="16" height="16" fill="none"><path d="M6.779 15h4.815c1.022 0 1.779-.656 2.327-1.472.55-.818.958-1.89 1.275-2.94.363-1.204.82-2.721.803-3.943-.008-.618-.137-1.24-.535-1.714-.414-.49-1.038-.728-1.839-.728h-.433a.96.96 0 0 1-.822-.64l-.434-1.25A1.95 1.95 0 0 0 10.094 1H4.406c-1.022 0-1.779.656-2.327 1.472-.55.818-.958 1.89-1.275 2.94C.44 6.617-.016 8.134 0 9.356c.009.618.138 1.24.536 1.714.414.49 1.038.728 1.839.728h.433c.374.031.697.28.822.64l.434 1.25A1.95 1.95 0 0 0 5.906 15zm.996-8.342.25-.786a.955.955 0 0 1 .91-.666h.53q-.11.196-.174.418a945 945 0 0 1-1.066 3.718l-.25.786a.955.955 0 0 1-.91.666h-.53q.11-.195.174-.418c.262-.919.661-2.317 1.066-3.718m-.25 5.081c-.127.428-.24.811-.362 1.15-.136.38-.27.67-.414.874-.087.123-.253.237-.625.237h-.218a.955.955 0 0 1-.901-.643l-.434-1.25a2 2 0 0 0-.139-.31h.4q.057 0 .113-.003h2.12q.237 0 .46-.055m3.904-7.847q.057.164.139.31h-.4l-.113.004h-2.12q-.237 0-.46.055c.127-.428.24-.811.362-1.15.136-.38.27-.67.414-.874.087-.123.253-.237.625-.237h.218c.406 0 .768.258.901.643zm-9.672 1.81c.309-1.022.682-1.979 1.148-2.67C3.372 2.335 3.865 2 4.406 2h3.825a6 6 0 0 0-.332.773c-.137.384-.265.817-.396 1.263l-.03.099A723 723 0 0 0 5.752 10.1a.96.96 0 0 1-.92.696H2.376c-.602 0-.907-.172-1.078-.374-.185-.22-.293-.57-.3-1.082-.015-1.034.383-2.387.76-3.639m11.338 7.267c-.467.695-.96 1.03-1.501 1.03H7.769c.127-.237.234-.5.332-.773.137-.383.265-.816.396-1.262l.03-.099A721 721 0 0 0 10.248 5.9a.96.96 0 0 1 .92-.696h2.456c.602 0 .908.172 1.078.374.185.22.293.57.3 1.082.015 1.034-.383 2.387-.76 3.639-.309 1.022-.682 1.979-1.148 2.67"></path></svg>